<svg width="29" height="28" viewBox="0 0 29 28" fill="none" xmlns="http://www.w3.org/2000/svg">
<path d="M21.0941 1.03876C21.0805 0.553342 21.4628 0.0931999 21.9437 0.0193179C22.247 -0.0435466 22.5665 0.0510743 22.8044 0.244204C24.6378 1.62917 26.4758 3.00765 28.3066 4.39521C28.7642 4.71601 28.8711 5.41919 28.5166 5.8547C27.1245 7.70758 25.7272 9.55723 24.3319 11.4069C24.0228 11.8398 23.3663 11.9616 22.9275 11.657C22.4401 11.3563 22.3079 10.6272 22.6618 10.1761C23.6436 8.87284 24.63 7.57343 25.6112 6.26948C23.3021 6.29929 20.9917 6.72508 18.8478 7.59028C17.0649 8.30706 15.3948 9.3278 13.9949 10.6493C12.5367 12.0258 11.3805 13.7562 10.8225 15.6927C10.562 16.5715 10.4369 17.4879 10.4311 18.4043C10.4434 18.9163 10.0202 19.3887 9.5108 19.4367C8.9489 19.5151 8.38247 19.0452 8.36238 18.4775C8.33192 16.3077 8.96186 14.1509 10.0623 12.2883C11.6683 9.56046 14.2107 7.46325 17.0532 6.11912C19.4168 4.99469 22.0072 4.37641 24.6171 4.22606C23.5808 3.43863 22.5432 2.65315 21.5069 1.86637C21.247 1.67583 21.0934 1.35956 21.0941 1.03876Z" fill="#6F7979"/>
<path d="M0.000648142 5.57104C-0.014906 5.0273 0.465327 4.53151 1.01037 4.5354C3.34608 4.5328 5.68243 4.53216 8.01814 4.5354C8.56189 4.5328 9.03823 5.03118 9.02592 5.57169C9.03758 6.11155 8.56124 6.6028 8.02073 6.60474C6.03888 6.61187 4.05638 6.60474 2.07453 6.60798C2.07323 13.0467 2.07453 19.4855 2.07388 25.9242C8.51328 25.9255 14.9527 25.9249 21.3921 25.9242C21.3927 23.4174 21.3908 20.9106 21.3927 18.4038C21.3791 17.8601 21.8593 17.3701 22.4031 17.3708C22.9656 17.341 23.4776 17.8465 23.4647 18.4077C23.4679 21.1517 23.4647 23.8957 23.4666 26.6397C23.4653 26.8828 23.4848 27.1375 23.383 27.3662C23.2223 27.7486 22.8192 28.013 22.4024 27.9981C15.2949 27.9994 8.18664 27.9988 1.07907 27.9988C0.514582 28.0305 -0.014258 27.5328 0.00129612 26.9638C-0.000648142 19.8329 5.43824e-08 12.702 0.000648142 5.57104Z" fill="#6F7979"/>
</svg>
